<?xml version="1.0" encoding="UTF-8"?>
<svg xmlns="http://www.w3.org/2000/svg" xmlns:xlink="http://www.w3.org/1999/xlink" width="50px" height="50px" viewBox="0 0 50 50" version="1.1">
<g id="surface1">
<path style=" stroke:none;fill-rule:evenodd;fill:rgb(10.980392%,15.294118%,29.803923%);fill-opacity:1;" d="M 2.605469 43.75 C 2.605469 42.886719 3.304688 42.1875 4.167969 42.1875 L 45.832031 42.1875 C 46.695312 42.1875 47.394531 42.886719 47.394531 43.75 C 47.394531 44.613281 46.695312 45.3125 45.832031 45.3125 L 4.167969 45.3125 C 3.304688 45.3125 2.605469 44.613281 2.605469 43.75 Z M 2.605469 6.25 C 2.605469 5.386719 3.304688 4.6875 4.167969 4.6875 L 45.832031 4.6875 C 46.695312 4.6875 47.394531 5.386719 47.394531 6.25 C 47.394531 7.113281 46.695312 7.8125 45.832031 7.8125 L 4.167969 7.8125 C 3.304688 7.8125 2.605469 7.113281 2.605469 6.25 Z M 2.605469 6.25 "/>
<path style=" stroke:none;fill-rule:nonzero;fill:rgb(10.980392%,15.294118%,29.803923%);fill-opacity:1;" d="M 8.332031 25 C 8.332031 28.929688 8.332031 30.890625 9.554688 32.113281 C 10.773438 33.332031 12.738281 33.332031 16.667969 33.332031 L 33.332031 33.332031 C 37.261719 33.332031 39.226562 33.332031 40.445312 32.113281 C 41.667969 30.890625 41.667969 28.929688 41.667969 25 C 41.667969 21.070312 41.667969 19.109375 40.445312 17.886719 C 39.226562 16.667969 37.261719 16.667969 33.332031 16.667969 L 16.667969 16.667969 C 12.738281 16.667969 10.773438 16.667969 9.554688 17.886719 C 8.332031 19.109375 8.332031 21.070312 8.332031 25 Z M 8.332031 25 "/>
</g>
</svg>
